# xmcd
#
# Track frame offsets: 
#        150
#        17275
#        35310
#        61613
#        81237
#        102756
#        122272
#        140646
#        155744
#        172620
#        188891
#        207084
#        231372
#        255162
#        270415
#        285789
#        303957
#        322391
#
# Disc length: 4451 seconds
#
# Revision: 2
# Processed by: cddbd v1.5.2PL0 Copyright (c) Steve Scherf et al.
# Submitted via: ExactAudioCopy v0.99pb3
#
DISCID=dc116112
DTITLE=Stone Age - Best of
DYEAR=1999
DGENRE=
TTITLE0=Stonage
TTITLE1=Zo Laret
TTITLE2=Yesterday`s Child
TTITLE3=Stone Trance
TTITLE4=Perceval
TTITLE5=Maureon Maquire
TTITLE6=Kalon Mari
TTITLE7=Lines of Stone
TTITLE8=Maribrengael
TTITLE9=Reverans
TTITLE10=Liz
TTITLE11=L`Homme-Goeland
TTITLE12=Kervador
TTITLE13=Ultra Breizh
TTITLE14=Rodour Bihan
TTITLE15=Reel Legend
TTITLE16=Le Dragon de Noz-Art
TTITLE17=Ti Plad
EXTD=
EXTT0=
EXTT1=
EXTT2=
EXTT3=
EXTT4=
EXTT5=
EXTT6=
EXTT7=
EXTT8=
EXTT9=
EXTT10=
EXTT11=
EXTT12=
EXTT13=
EXTT14=
EXTT15=
EXTT16=
EXTT17=
PLAYORDER=
